<mxfile host="Electron" modified="2024-05-31T07:08:29.125Z" agent="Mozilla/5.0 (Windows NT 10.0; Win64; x64) AppleWebKit/537.36 (KHTML, like Gecko) draw.io/24.4.8 Chrome/124.0.6367.207 Electron/30.0.6 Safari/537.36" etag="tYSg2QMx-zKIJT4UezXu" version="24.4.8" type="device">
  <diagram id="C5RBs43oDa-KdzZeNtuy" name="Page-1">
    <mxGraphModel dx="677" dy="406" grid="1" gridSize="10" guides="1" tooltips="1" connect="1" arrows="1" fold="1" page="1" pageScale="1" pageWidth="827" pageHeight="1169" math="1" shadow="0">
      <root>
        <mxCell id="WIyWlLk6GJQsqaUBKTNV-0" />
        <mxCell id="WIyWlLk6GJQsqaUBKTNV-1" parent="WIyWlLk6GJQsqaUBKTNV-0" />
        <mxCell id="JyFhFdbp5NXNAL2W21el-2" style="edgeStyle=orthogonalEdgeStyle;rounded=0;orthogonalLoop=1;jettySize=auto;html=1;entryX=0.5;entryY=0;entryDx=0;entryDy=0;" edge="1" parent="WIyWlLk6GJQsqaUBKTNV-1" source="oVPd4O4VAUAXnWLhdtpO-2" target="JyFhFdbp5NXNAL2W21el-0">
          <mxGeometry relative="1" as="geometry" />
        </mxCell>
        <mxCell id="oVPd4O4VAUAXnWLhdtpO-2" value="Ảnh &lt;br style=&quot;font-size: 11px;&quot;&gt;ngõ vào X" style="ellipse;whiteSpace=wrap;html=1;aspect=fixed;fontFamily=Lucida Console;fontSize=11;" parent="WIyWlLk6GJQsqaUBKTNV-1" vertex="1">
          <mxGeometry x="110" width="60" height="60" as="geometry" />
        </mxCell>
        <mxCell id="JyFhFdbp5NXNAL2W21el-5" style="edgeStyle=orthogonalEdgeStyle;rounded=0;orthogonalLoop=1;jettySize=auto;html=1;entryX=0.5;entryY=0;entryDx=0;entryDy=0;" edge="1" parent="WIyWlLk6GJQsqaUBKTNV-1" source="PT52hOmJ2-Wrh06CAvcp-5" target="PT52hOmJ2-Wrh06CAvcp-18">
          <mxGeometry relative="1" as="geometry" />
        </mxCell>
        <mxCell id="PT52hOmJ2-Wrh06CAvcp-5" value="&lt;div style=&quot;font-size: 11px;&quot;&gt;`Y_(i-1,j-1) = \med([[Z_(i-1,j-1), Z_(i-1,j), Z_(i-1,j+1)],[Z_(i,j-1), Z_(i,j), Z_(i,j+1)],[Z_(i+1,j-1), Z_(i+1,j), Z_(i+1,j+1)]])`,&lt;br&gt;&lt;br&gt;&lt;span style=&quot;&quot;&gt;`((1&amp;lt;=i&amp;lt;=n_(rows)), (1&amp;lt;=j&amp;lt;=n_(cols)))`&lt;/span&gt;&lt;br&gt;&lt;/div&gt;" style="rounded=0;whiteSpace=wrap;html=1;fontFamily=Lucida Console;align=center;" parent="WIyWlLk6GJQsqaUBKTNV-1" vertex="1">
          <mxGeometry y="280" width="280" height="110" as="geometry" />
        </mxCell>
        <mxCell id="PT52hOmJ2-Wrh06CAvcp-18" value="Ảnh &lt;br style=&quot;font-size: 11px;&quot;&gt;ngõ ra Y" style="ellipse;whiteSpace=wrap;html=1;aspect=fixed;fontFamily=Lucida Console;fontSize=11;" parent="WIyWlLk6GJQsqaUBKTNV-1" vertex="1">
          <mxGeometry x="110" y="410" width="60" height="60" as="geometry" />
        </mxCell>
        <mxCell id="JyFhFdbp5NXNAL2W21el-3" style="edgeStyle=orthogonalEdgeStyle;rounded=0;orthogonalLoop=1;jettySize=auto;html=1;entryX=0.5;entryY=0;entryDx=0;entryDy=0;" edge="1" parent="WIyWlLk6GJQsqaUBKTNV-1" source="JyFhFdbp5NXNAL2W21el-0" target="JyFhFdbp5NXNAL2W21el-1">
          <mxGeometry relative="1" as="geometry" />
        </mxCell>
        <mxCell id="JyFhFdbp5NXNAL2W21el-0" value="&lt;div style=&quot;font-size: 11px; text-align: left;&quot;&gt;`n_(rows)` = số hàng(X)&lt;br&gt;`n_(cols)` = số cột(X)&lt;/div&gt;" style="rounded=0;whiteSpace=wrap;html=1;fontFamily=Lucida Console;" vertex="1" parent="WIyWlLk6GJQsqaUBKTNV-1">
          <mxGeometry x="70" y="80" width="140" height="40" as="geometry" />
        </mxCell>
        <mxCell id="JyFhFdbp5NXNAL2W21el-4" style="edgeStyle=orthogonalEdgeStyle;rounded=0;orthogonalLoop=1;jettySize=auto;html=1;entryX=0.5;entryY=0;entryDx=0;entryDy=0;" edge="1" parent="WIyWlLk6GJQsqaUBKTNV-1" source="JyFhFdbp5NXNAL2W21el-1" target="PT52hOmJ2-Wrh06CAvcp-5">
          <mxGeometry relative="1" as="geometry" />
        </mxCell>
        <mxCell id="JyFhFdbp5NXNAL2W21el-1" value="&lt;div style=&quot;font-size: 11px;&quot;&gt;Zero-padding:&lt;br&gt;`{(Z_(0,j)=0), (Z_(n_(rows)+1,j)=0), (Z_(i,0) = 0), (Z_(i,n_(cols)+1)=0), (Z_(i+1,j+1)=X_(i,j)):}`, `((0&amp;lt;=i&amp;lt;=n_(rows)+1), (0&amp;lt;=j&amp;lt;=n_(cols)+1))`&lt;br&gt;&lt;/div&gt;" style="rounded=0;whiteSpace=wrap;html=1;fontFamily=Lucida Console;align=center;" vertex="1" parent="WIyWlLk6GJQsqaUBKTNV-1">
          <mxGeometry y="140" width="280" height="120" as="geometry" />
        </mxCell>
      </root>
    </mxGraphModel>
  </diagram>
</mxfile>
